<svg width="24" height="24" viewBox="0 0 24 24" fill="none" xmlns="http://www.w3.org/2000/svg">
<g clip-path="url(#clip0_6802_39917)">
<path d="M23.2969 8.28436H20.9601C20.6003 3.65602 16.7191 0 12 0C7.28091 0 3.39975 3.65602 3.03989 8.28436H0.703125C0.314812 8.28436 0 8.59917 0 8.98748V16.5187C0 16.9071 0.314812 17.2219 0.703125 17.2219H3.71564C4.10395 17.2219 4.41877 16.9071 4.41877 16.5187V8.98748C4.41877 4.80717 7.81969 1.40625 12 1.40625C16.1803 1.40625 19.5812 4.80717 19.5812 8.98748V16.5187C19.5812 19.038 17.5317 21.0875 15.0125 21.0875H14.094C13.7996 20.2131 12.9724 19.5813 12 19.5813C10.7818 19.5813 9.79059 20.5724 9.79059 21.7906C9.79059 23.0089 10.7818 24 12 24C12.9724 24 13.7996 23.3682 14.094 22.4938H15.0125C18.0692 22.4938 20.5968 20.1863 20.9459 17.2219H23.2969C23.6852 17.2219 24 16.9071 24 16.5187V8.98748C24 8.59917 23.6852 8.28436 23.2969 8.28436ZM3.01252 15.8156H1.40625V9.69061H3.01252V15.8156ZM12 22.5938C11.5572 22.5938 11.1968 22.2335 11.1968 21.7906C11.1968 21.3478 11.5572 20.9875 12 20.9875C12.4428 20.9875 12.8032 21.3478 12.8032 21.7906C12.8032 22.2335 12.4428 22.5938 12 22.5938ZM22.5938 15.8156H20.9875V9.69061H22.5938V15.8156Z" fill="#365327"/>
<path d="M17.1637 8.33799C16.901 8.22915 16.5986 8.28924 16.3975 8.49034C16.3974 8.49034 14.2022 10.6849 13.1613 11.7249C12.6939 12.195 12.4258 12.8443 12.4258 13.5063C12.4258 13.8946 12.7406 14.2095 13.1289 14.2095H16.1914V15.7657C16.1914 16.154 16.5062 16.4688 16.8946 16.4688C17.2829 16.4688 17.5977 16.154 17.5977 15.7657V14.2095H17.6477C18.036 14.2095 18.3508 13.8946 18.3508 13.5063C18.3508 13.118 18.036 12.8032 17.6477 12.8032H17.5977V8.98759C17.5977 8.70324 17.4264 8.44688 17.1637 8.33799ZM16.1914 12.8032H14.0807C14.1047 12.7736 14.1301 12.7452 14.1569 12.7181C14.6836 12.1919 15.5072 11.3686 16.1914 10.6846V12.8032Z" fill="#365327"/>
<path d="M11.1953 15.7657C11.1953 15.3774 10.8804 15.0625 10.4921 15.0625H7.67836C7.70222 15.0329 7.72763 15.0045 7.75448 14.9775C8.79384 13.9389 10.9892 11.7442 10.9892 11.7442C11.1211 11.6123 11.1953 11.4334 11.1953 11.2469V10.8704C11.1953 9.44449 10.0353 8.28442 8.60939 8.28442C7.16934 8.28442 6.02344 9.45124 6.02344 10.8696V10.8703C6.02344 11.2586 6.33825 11.5731 6.72656 11.5731C7.11488 11.5731 7.42969 11.2579 7.42969 10.8696C7.42969 10.225 7.94864 9.69067 8.60939 9.69067C9.25988 9.69067 9.78905 10.2199 9.78905 10.8704V10.9556C9.21891 11.5255 7.60636 13.1375 6.75895 13.9843C6.29147 14.4543 6.02344 15.1037 6.02344 15.7657C6.02344 16.154 6.33825 16.4688 6.72656 16.4688H10.4922C10.8804 16.4688 11.1953 16.154 11.1953 15.7657Z" fill="#365327"/>
</g>
<defs>
<clipPath id="clip0_6802_39917">
<rect width="24" height="24" fill="white"/>
</clipPath>
</defs>
</svg>
