<svg width="35" height="35" viewBox="0 0 35 35" fill="none" xmlns="http://www.w3.org/2000/svg">
<path d="M5.22887 14.2729C4.94499 14.1664 4.62849 14.3102 4.52198 14.5941C4.41547 14.878 4.55926 15.1945 4.84314 15.301L20.2636 21.0868C20.5475 21.1933 20.864 21.0495 20.9705 20.7657C21.0771 20.4818 20.9333 20.1653 20.6494 20.0588L5.22887 14.2729Z" fill="#365327"/>
<path d="M6.89684 14.8999L16.5537 18.5232C16.8376 18.6297 16.9814 18.9462 16.8749 19.2301L13.2106 28.9964C13.1041 29.2803 12.7875 29.4241 12.5037 29.3176L2.84676 25.6943C2.56289 25.5878 2.41909 25.2712 2.5256 24.9874L6.18995 15.2211C6.29646 14.9372 6.61296 14.7934 6.89684 14.8999ZM15.654 19.3584L7.02514 16.1208L3.74653 24.8591L12.3754 28.0966L15.654 19.3584Z" fill="#365327"/>
<path d="M25.7189 16.0368C25.4502 16.1764 25.3455 16.5073 25.4851 16.776C25.6246 17.0447 25.9555 17.1494 26.2242 17.0098C26.4384 16.8985 26.6297 16.7994 26.785 16.754C26.9049 16.7191 27.0237 16.7102 27.1545 16.7463C27.3916 16.8116 27.5799 16.9668 27.6925 17.165C27.8047 17.3624 27.8415 17.6032 27.7762 17.8402C27.6013 18.4826 27.3785 19.4192 27.1475 20.3899C26.8529 21.6282 26.5448 22.9234 26.3073 23.7194C26.2959 23.7577 26.2647 23.8114 26.2506 23.8357C26.2397 23.8544 26.2315 23.8685 26.2257 23.8796C25.8861 24.5415 25.4063 24.9888 24.8464 25.2032C24.2823 25.4192 23.6193 25.4051 22.9188 25.1423L21.4975 24.609C20.8674 24.3726 20.431 24.3891 19.9564 24.727C19.5875 24.9897 19.2562 25.4464 18.7607 26.1685L18.7596 26.1678C18.7497 26.1822 18.7406 26.1969 18.7322 26.2119L17.1011 28.8588C17.0229 28.9673 16.9095 29.0348 16.7885 29.0564C16.6636 29.0787 16.5299 29.0531 16.417 28.9744C16.3047 28.8961 16.2348 28.7805 16.2128 28.657C16.1905 28.5323 16.216 28.3988 16.2945 28.286L16.2947 28.2861C16.306 28.2698 16.3164 28.2531 16.3257 28.236L19.8553 22.8434L19.8563 22.8441C19.9719 22.6782 20.1526 22.5563 20.3548 22.4931C20.5538 22.4309 20.7695 22.4281 20.9589 22.4992L22.5115 23.0817C22.946 23.2448 23.2326 23.3344 23.5553 23.2416C23.912 23.1391 24.118 22.8803 24.3142 22.3599L24.3162 22.3606C24.3231 22.3421 24.329 22.3235 24.3339 22.3048L25.3487 19.4434C25.4504 19.159 25.3022 18.846 25.0178 18.7443C24.7334 18.6426 24.4204 18.7908 24.3187 19.0753L23.3028 21.9396C23.2978 21.9507 23.293 21.9619 23.2887 21.9734L23.2905 21.9741L23.2874 21.9829L23.2875 21.983C23.2322 22.1363 23.29 22.179 23.2537 22.1894C23.2511 22.1901 23.1222 22.1381 22.8972 22.0537L21.3447 21.4712C20.9232 21.313 20.4536 21.3161 20.0271 21.4494C19.6064 21.5808 19.2234 21.8414 18.967 22.2009C18.9599 22.2103 18.953 22.22 18.9464 22.2301L18.9478 22.231L15.4096 27.6369C15.4042 27.6439 15.3989 27.651 15.3938 27.6583L15.395 27.6591L15.3947 27.6595L15.3938 27.6589C15.143 28.0187 15.0618 28.4467 15.1335 28.8476C15.2053 29.2498 15.4299 29.6242 15.7903 29.8754C16.1502 30.1262 16.5781 30.2073 16.979 30.1357C17.3746 30.0651 17.7432 29.8467 17.9942 29.4967C18.0046 29.4829 18.0145 29.4685 18.0237 29.4535L17.5564 29.1655L18.0234 29.453L19.6793 26.7659L19.6793 26.7659C20.0959 26.1591 20.3678 25.7805 20.5923 25.6207C20.714 25.534 20.8633 25.5438 21.1118 25.6371L22.533 26.1703C23.4887 26.5289 24.4196 26.5379 25.2373 26.2248C26.0498 25.9137 26.7331 25.2906 27.2001 24.3826C27.2348 24.3228 27.3099 24.1933 27.357 24.0354C27.592 23.2475 27.9088 21.9158 28.2117 20.6426C28.4402 19.6824 28.6606 18.756 28.8309 18.1306C28.9762 17.6028 28.8935 17.0654 28.6424 16.6235C28.3917 16.1825 27.9727 15.8369 27.4449 15.6916C27.0924 15.5946 26.7833 15.6152 26.478 15.7043C26.2083 15.783 25.9771 15.9026 25.7189 16.0368Z" fill="#365327"/>
<path d="M28.5665 10.6538C29.1856 10.8861 29.652 11.3474 29.9055 11.9055C30.1591 12.4635 30.1997 13.1183 29.9674 13.7374C29.7351 14.3565 29.2738 14.8229 28.7158 15.0764C28.1578 15.33 27.503 15.3706 26.8839 15.1383C26.2648 14.906 25.7984 14.4447 25.5448 13.8867C25.2913 13.3286 25.2506 12.6739 25.4829 12.0548C25.7152 11.4356 26.1765 10.9692 26.7346 10.7157C27.2926 10.4622 27.9474 10.4215 28.5665 10.6538ZM28.9059 12.3596C28.7687 12.0575 28.5161 11.8077 28.1808 11.6819C27.8454 11.556 27.4908 11.578 27.1887 11.7153C26.8866 11.8526 26.6368 12.1052 26.511 12.4405C26.3851 12.7759 26.4072 13.1304 26.5444 13.4325C26.6817 13.7346 26.9343 13.9844 27.2696 14.1103C27.605 14.2361 27.9595 14.2141 28.2616 14.0768C28.5637 13.9396 28.8136 13.687 28.9394 13.3516C29.0652 13.0163 29.0432 12.6617 28.9059 12.3596Z" fill="#365327"/>
<path d="M26.024 17.1096C26.2962 16.9777 26.4099 16.6501 26.2779 16.378C26.146 16.1059 25.8184 15.9922 25.5463 16.1241L23.3617 17.1765L20.0976 16.5914L20.0976 16.5913C19.715 16.4973 19.3302 16.5675 19.0175 16.757C18.7054 16.946 18.4654 17.2541 18.3716 17.6363C18.2777 18.0189 18.3478 18.4037 18.5373 18.7164C18.7263 19.0285 19.0344 19.2685 19.4166 19.3623L19.5477 18.8297L19.4168 19.3629C19.4347 19.3673 19.4526 19.3707 19.4704 19.3733L22.6734 20.1225L22.6732 20.1231L22.7022 20.1313L22.7021 20.1313L22.7026 20.1314C22.9613 20.2035 23.185 20.2258 23.3965 20.2078C23.6256 20.1884 23.8245 20.1242 24.0244 20.0261L26.2972 18.9135C26.5686 18.78 26.6805 18.4518 26.5471 18.1803C26.4136 17.9089 26.0854 17.797 25.8139 17.9304L23.5411 19.0431C23.4587 19.0835 23.3831 19.1095 23.3069 19.1159C23.2255 19.1229 23.1278 19.1112 23.0023 19.0764C22.986 19.071 22.9693 19.0662 22.9522 19.0622L22.9517 19.0642L19.7194 18.3082C19.7061 18.3039 19.6925 18.2999 19.6786 18.2965L19.6785 18.297C19.5898 18.2752 19.5184 18.2196 19.4746 18.1473C19.4312 18.0755 19.4151 17.9869 19.4368 17.8985C19.4586 17.8097 19.5143 17.7381 19.5866 17.6943C19.6547 17.6531 19.738 17.6365 19.8218 17.6535C19.8374 17.6577 19.8534 17.6614 19.8696 17.6643L19.8699 17.6625L23.3009 18.2776C23.4227 18.3096 23.5561 18.3001 23.6785 18.2412L23.4402 17.7466L23.6791 18.2393L26.024 17.1096Z" fill="#365327"/>
<path d="M29.7587 22.3428C29.8836 22.0671 29.7614 21.7423 29.4857 21.6174C29.21 21.4924 28.8852 21.6146 28.7603 21.8903L26.7027 26.419L26.6976 26.4291L26.6972 26.429L26.6945 26.4351C26.3224 27.1602 26.0188 27.5281 25.7154 27.6549C25.445 27.7678 25.0908 27.6876 24.6212 27.5114C24.6032 27.5047 24.585 27.4989 24.5668 27.4941L21.0517 26.2405C20.7672 26.1388 20.4542 26.287 20.3525 26.5714C20.2509 26.8559 20.399 27.1689 20.6835 27.2705L24.1998 28.5246C24.2114 28.5299 24.2233 28.5349 24.2355 28.5395C24.9555 28.8096 25.5428 28.9141 26.1379 28.6655C26.6903 28.4348 27.1683 27.911 27.6695 26.9357C27.6795 26.9189 27.6886 26.9014 27.6969 26.8831L27.1971 26.6561L27.6963 26.8823L29.7587 22.3428Z" fill="#365327"/>
<path d="M23.9875 28.348C24.094 28.0641 23.9503 27.7476 23.6664 27.6411C23.3825 27.5346 23.066 27.6784 22.9595 27.9623L21.8023 31.0464C21.6958 31.3302 21.8396 31.6468 22.1235 31.7533C22.4074 31.8598 22.7239 31.716 22.8304 31.4321L23.9875 28.348Z" fill="#365327"/>
<path d="M19.1241 31.274C18.8225 31.3025 18.601 31.5701 18.6295 31.8717C18.658 32.1734 18.9257 32.3948 19.2273 32.3663L21.9943 32.1026L23.9048 34.1213C24.1133 34.3412 24.4605 34.3505 24.6804 34.1421C24.9003 33.9336 24.9096 33.5863 24.7011 33.3665L22.6213 31.1689C22.5089 31.0411 22.339 30.9672 22.1566 30.9845L22.1566 30.9849L19.1241 31.274Z" fill="#365327"/>
<path d="M11.8695 15.3208C11.5856 15.2143 11.2691 15.3581 11.1626 15.642C11.0561 15.9258 11.1999 16.2423 11.4838 16.3489L15.0819 17.6989C15.3658 17.8054 15.6823 17.6616 15.7888 17.3777C15.8953 17.0938 15.7515 16.7773 15.4676 16.6708L11.8695 15.3208Z" fill="#365327"/>
<path d="M12.3187 14.1216C12.0348 14.0151 11.7183 14.1589 11.6118 14.4427C11.5053 14.7266 11.6491 15.0431 11.933 15.1496L15.5311 16.4997C15.815 16.6062 16.1315 16.4624 16.238 16.1785C16.3445 15.8946 16.2007 15.5781 15.9168 15.4716L12.3187 14.1216Z" fill="#365327"/>
<path d="M14.1581 2.29797C15.3742 2.75425 16.2903 3.66036 16.7882 4.7564C17.2862 5.85243 17.3661 7.1385 16.9098 8.35459C16.4535 9.5707 15.5474 10.4868 14.4513 10.9847C13.3553 11.4827 12.0693 11.5626 10.8532 11.1063C9.63705 10.65 8.72095 9.74389 8.22299 8.64785C7.72503 7.55182 7.64516 6.26579 8.10145 5.04968C8.55774 3.83357 9.46385 2.91746 10.5599 2.4195C11.6559 1.92154 12.942 1.84168 14.1581 2.29797ZM15.7887 5.21053C15.407 4.37042 14.7047 3.67584 13.7723 3.32602C12.84 2.9762 11.8541 3.03738 11.014 3.41907C10.1739 3.80076 9.47932 4.50306 9.1295 5.43541C8.77968 6.36775 8.84087 7.3536 9.22256 8.19372C9.60425 9.03383 10.3065 9.72844 11.2389 10.0783C12.1712 10.4281 13.1571 10.3669 13.9972 9.98518C14.8373 9.60349 15.5319 8.90122 15.8817 7.96887C16.2316 7.03652 16.1704 6.05065 15.7887 5.21053Z" fill="#365327"/>
<path d="M14.4181 7.5906C14.7198 7.60257 14.974 7.36774 14.986 7.06609C14.998 6.76445 14.7631 6.51021 14.4615 6.49823L12.9619 6.44241L12.867 4.58958C12.8513 4.28767 12.5937 4.05568 12.2918 4.07141C11.9899 4.08715 11.7579 4.3447 11.7736 4.64662L11.8919 6.95694C11.8847 7.25668 12.1198 7.50745 12.4203 7.51865L12.4204 7.51626L14.4181 7.5906Z" fill="#365327"/>
</svg>
