<svg width="14" height="14" viewBox="0 0 14 14" fill="none" xmlns="http://www.w3.org/2000/svg">
<path d="M12.7485 2.85692C12.6912 2.85692 12.6391 2.83483 12.6002 2.79896C12.5556 2.75871 12.5273 2.70074 12.5273 2.63599C12.5273 2.51502 12.6251 2.41724 12.7461 2.41724C12.8671 2.41724 12.9672 2.51721 12.9672 2.63817C12.9672 2.75914 12.8695 2.85692 12.7485 2.85692Z" fill="#365327"/>
<path d="M12.8173 2.84594C12.778 2.70375 12.7255 2.56594 12.662 2.43469C12.2705 1.64063 11.4523 1.09375 10.5073 1.09375C9.17953 1.09375 8.10547 2.16781 8.10547 3.49344C8.10547 4.93063 9.26047 6.54719 9.96922 7.4025C10.282 7.78094 10.5073 8.01281 10.5073 8.01281C10.5073 8.01281 10.7327 7.78094 11.0455 7.4025C11.7542 6.54719 12.907 4.93063 12.907 3.49344C12.907 3.26813 12.8764 3.05156 12.8173 2.84594ZM10.5073 2.12844C11.2817 2.12844 11.9073 2.75625 11.9073 3.53063C11.9073 4.305 11.2817 4.93063 10.5073 4.93063C9.73297 4.93063 9.10516 4.305 9.10516 3.53063C9.10516 2.75625 9.73297 2.12844 10.5073 2.12844Z" fill="#B49D97"/>
<path d="M10.5073 1.90969C9.61266 1.90969 8.88641 2.63594 8.88641 3.53063C8.88641 4.42531 9.61266 5.14938 10.5073 5.14938C11.402 5.14938 12.1261 4.42313 12.1261 3.53063C12.1261 2.63813 11.3998 1.90969 10.5073 1.90969ZM10.5073 4.71188C9.85547 4.71188 9.32391 4.1825 9.32391 3.53063C9.32391 2.87875 9.85547 2.34719 10.5073 2.34719C11.1592 2.34719 11.6886 2.87875 11.6886 3.53063C11.6886 4.1825 11.1592 4.71188 10.5073 4.71188ZM10.5073 1.90969C9.61266 1.90969 8.88641 2.63594 8.88641 3.53063C8.88641 4.42531 9.61266 5.14938 10.5073 5.14938C11.402 5.14938 12.1261 4.42313 12.1261 3.53063C12.1261 2.63813 11.3998 1.90969 10.5073 1.90969ZM10.5073 4.71188C9.85547 4.71188 9.32391 4.1825 9.32391 3.53063C9.32391 2.87875 9.85547 2.34719 10.5073 2.34719C11.1592 2.34719 11.6886 2.87875 11.6886 3.53063C11.6886 4.1825 11.1592 4.71188 10.5073 4.71188ZM12.9552 2.56375C12.953 2.55719 12.9508 2.55063 12.9486 2.54625C12.568 1.56844 11.6164 0.875 10.5073 0.875C9.06141 0.875 7.88672 2.04969 7.88672 3.49344C7.88672 5.00719 9.08547 6.67844 9.80078 7.5425C10.1158 7.92313 10.3411 8.155 10.3498 8.16594C10.3914 8.2075 10.4483 8.23156 10.5073 8.23156C10.5664 8.23156 10.6233 8.2075 10.6648 8.16594C10.6736 8.155 10.8989 7.92313 11.2139 7.5425C11.927 6.68063 13.1258 5.00938 13.1258 3.49344C13.1258 3.16531 13.0645 2.8525 12.9552 2.56375ZM10.5073 7.69125C10.4133 7.58844 10.2864 7.44188 10.1377 7.2625C9.45953 6.44656 8.32422 4.86938 8.32422 3.49344C8.32422 2.29031 9.30422 1.3125 10.5073 1.3125C11.4239 1.3125 12.2114 1.88125 12.533 2.68406C12.5373 2.69719 12.5439 2.71031 12.5483 2.72563C12.638 2.96406 12.6883 3.22219 12.6883 3.49344C12.6883 4.87156 11.553 6.44656 10.877 7.2625C10.7283 7.44188 10.6014 7.58844 10.5073 7.69125ZM10.5073 1.90969C9.61266 1.90969 8.88641 2.63594 8.88641 3.53063C8.88641 4.42531 9.61266 5.14938 10.5073 5.14938C11.402 5.14938 12.1261 4.42313 12.1261 3.53063C12.1261 2.63813 11.3998 1.90969 10.5073 1.90969ZM10.5073 4.71188C9.85547 4.71188 9.32391 4.1825 9.32391 3.53063C9.32391 2.87875 9.85547 2.34719 10.5073 2.34719C11.1592 2.34719 11.6886 2.87875 11.6886 3.53063C11.6886 4.1825 11.1592 4.71188 10.5073 4.71188Z" fill="#B49D97"/>
<path d="M12.6134 12.0422C12.5642 12.0422 12.5156 12.0256 12.476 11.9937L8.00915 8.39085C7.90261 8.30466 7.84246 8.17669 7.84377 8.03975C7.8453 7.90238 7.9083 7.77528 8.0168 7.69128L8.71418 7.1606C8.80999 7.08753 8.94736 7.10613 9.02065 7.20216C9.09371 7.29819 9.07511 7.43556 8.97908 7.50863L8.28324 8.038L12.3968 11.3665V6.68481C12.3968 6.56385 12.4946 6.46606 12.6156 6.46606C12.7366 6.46606 12.8343 6.56385 12.8343 6.68481V11.7598C12.8343 11.7893 12.8339 11.8156 12.8311 11.8447C12.8232 11.9245 12.772 11.9941 12.6981 12.0249C12.6709 12.0365 12.6421 12.0422 12.6134 12.0422Z" fill="#365327"/>
<path d="M11.847 12.6132C11.8186 12.6154 11.7902 12.6176 11.7595 12.6176H2.23953C2.14547 12.6176 2.05578 12.6023 1.97266 12.5738L6.88578 8.82883C6.96891 8.7654 7.08484 8.76759 7.16578 8.83321L11.847 12.6132Z" fill="#365327"/>
<path d="M12.0614 12.5672C12.057 12.5519 12.0527 12.5344 12.0439 12.5213C12.0395 12.5082 12.033 12.4972 12.022 12.4863C12.0111 12.4666 11.9958 12.4513 11.9761 12.436L7.30359 8.66253C7.14391 8.53347 6.91641 8.5291 6.75234 8.65597L1.83922 12.401C1.79766 12.4316 1.77141 12.4753 1.76047 12.5235C1.75609 12.541 1.75391 12.5563 1.75391 12.5738C1.75391 12.5847 1.75391 12.5978 1.75609 12.6088C1.75828 12.6285 1.76484 12.6482 1.77359 12.6657C1.78891 12.7007 1.81516 12.7291 1.84578 12.751C1.85016 12.7553 1.85453 12.7575 1.85891 12.7597C1.86984 12.7663 1.88078 12.7728 1.89172 12.7772C1.90266 12.7816 1.91359 12.786 1.92453 12.7882C2.02516 12.8188 2.13234 12.8363 2.23953 12.8363H11.7595C11.7902 12.8363 11.8186 12.8341 11.847 12.8319H11.8645C11.8733 12.8319 11.8842 12.8297 11.893 12.8275C11.917 12.8232 11.9389 12.8144 11.9586 12.8013C11.9958 12.7794 12.0242 12.7488 12.0439 12.7094C12.0483 12.7007 12.0527 12.6919 12.0548 12.681C12.0563 12.6795 12.057 12.6781 12.057 12.6766C12.0614 12.6657 12.0636 12.6569 12.0636 12.646C12.068 12.6197 12.068 12.5935 12.0614 12.5672ZM2.56547 12.3988L7.02797 9.00378L11.2323 12.3988H2.56547Z" fill="#365327"/>
<path d="M1.38281 11.8693C1.34978 11.8693 1.31653 11.8619 1.28569 11.8466C1.21109 11.8096 1.16406 11.7335 1.16406 11.6506V4.35091C1.16406 3.75744 1.64706 3.27466 2.24031 3.27466H7.3C7.42097 3.27466 7.51875 3.37244 7.51875 3.49341C7.51875 3.61438 7.42097 3.71216 7.3 3.71216H2.24031C1.88812 3.71216 1.60156 3.99872 1.60156 4.35091V11.2089L8.10128 6.25513C8.19775 6.18141 8.33491 6.20066 8.40775 6.29625C8.48103 6.39228 8.46266 6.52966 8.36662 6.60272L1.51537 11.8245C1.47666 11.8543 1.42984 11.8693 1.38281 11.8693Z" fill="#365327"/>
<path d="M1.38289 11.8694C1.31683 11.8694 1.25164 11.8396 1.20877 11.7832C1.13571 11.6871 1.15408 11.5498 1.25011 11.4767L8.10114 6.25514C8.19761 6.18142 8.33477 6.20067 8.40761 6.29627C8.48089 6.3923 8.46252 6.52967 8.36649 6.60274L1.51524 11.8245C1.47564 11.8549 1.42905 11.8694 1.38289 11.8694Z" fill="#365327"/>
<path d="M11.8493 12.8318H11.8471C11.797 12.8318 11.7487 12.8148 11.7097 12.7833L7.02827 9.00327L2.1053 12.7476C2.00883 12.8213 1.87189 12.8023 1.79861 12.7065C1.72555 12.6105 1.74392 12.4731 1.83996 12.4L6.75308 8.65502C6.91714 8.53011 7.14311 8.53317 7.30346 8.66333L11.9764 12.4365C12.0311 12.4766 12.0667 12.5409 12.0667 12.6133C12.0667 12.7343 11.97 12.832 11.8491 12.832L11.8493 12.8318Z" fill="#365327"/>
<path d="M12.6132 12.0422C12.5651 12.0422 12.5165 12.0265 12.476 11.9937L8.00915 8.39084C7.90261 8.30465 7.84246 8.17669 7.84377 8.03975C7.8453 7.90237 7.9083 7.77528 8.0168 7.69128L8.71418 7.16059C8.80999 7.08753 8.94736 7.10612 9.02065 7.20215C9.09371 7.29819 9.07511 7.43556 8.97908 7.50862L8.28324 8.038L12.7508 11.6528C12.8448 11.7287 12.8595 11.8666 12.7836 11.9604C12.7405 12.014 12.6771 12.0418 12.6132 12.0418V12.0422Z" fill="#365327"/>
<path d="M1.38289 11.8694C1.31683 11.8694 1.25164 11.8396 1.20877 11.7832C1.13571 11.6871 1.15408 11.5498 1.25011 11.4767L8.10114 6.25514C8.19761 6.18142 8.33477 6.20067 8.40761 6.29627C8.48089 6.3923 8.46252 6.52967 8.36649 6.60274L1.51524 11.8245C1.47564 11.8549 1.42905 11.8694 1.38289 11.8694Z" fill="#365327"/>
<path d="M11.8493 12.8318H11.8471C11.797 12.8318 11.7487 12.8148 11.7097 12.7833L7.02827 9.00327L2.1053 12.7476C2.00883 12.8213 1.87189 12.8023 1.79861 12.7065C1.72555 12.6105 1.74392 12.4731 1.83996 12.4L6.75308 8.65502C6.91714 8.53011 7.14311 8.53317 7.30346 8.66333L11.9764 12.4365C12.0311 12.4766 12.0667 12.5409 12.0667 12.6133C12.0667 12.7343 11.9703 12.8318 11.8493 12.8318Z" fill="#365327"/>
<path d="M12.6132 12.0422C12.5651 12.0422 12.5165 12.0265 12.476 11.9937L8.00915 8.39084C7.90261 8.30465 7.84246 8.17669 7.84377 8.03975C7.8453 7.90237 7.9083 7.77528 8.0168 7.69128L8.71418 7.16059C8.80999 7.08753 8.94736 7.10612 9.02065 7.20215C9.09371 7.29819 9.07511 7.43556 8.97908 7.50862L8.28324 8.038L12.7508 11.6528C12.8448 11.7287 12.8595 11.8666 12.7836 11.9604C12.7405 12.014 12.6771 12.0418 12.6132 12.0418V12.0422Z" fill="#365327"/>
</svg>
