<svg width="16" height="16" viewBox="0 0 16 16" fill="none" xmlns="http://www.w3.org/2000/svg">
<path fill-rule="evenodd" clip-rule="evenodd" d="M6.83594 8.6665C6.83594 8.39037 7.0598 8.1665 7.33594 8.1665H10.6693C10.9454 8.1665 11.1693 8.39037 11.1693 8.6665C11.1693 8.94264 10.9454 9.1665 10.6693 9.1665H7.33594C7.0598 9.1665 6.83594 8.94264 6.83594 8.6665ZM4.83594 8.6665C4.83594 8.39037 5.0598 8.1665 5.33594 8.1665H5.34192C5.61807 8.1665 5.84192 8.39037 5.84192 8.6665C5.84192 8.94264 5.61807 9.1665 5.34192 9.1665H5.33594C5.0598 9.1665 4.83594 8.94264 4.83594 8.6665ZM4.83594 11.3332C4.83594 11.057 5.0598 10.8332 5.33594 10.8332H8.66927C8.9454 10.8332 9.16927 11.057 9.16927 11.3332C9.16927 11.6093 8.9454 11.8332 8.66927 11.8332H5.33594C5.0598 11.8332 4.83594 11.6093 4.83594 11.3332ZM10.1633 11.3332C10.1633 11.057 10.3871 10.8332 10.6633 10.8332H10.6693C10.9454 10.8332 11.1693 11.057 11.1693 11.3332C11.1693 11.6093 10.9454 11.8332 10.6693 11.8332H10.6633C10.3871 11.8332 10.1633 11.6093 10.1633 11.3332Z" fill="#365327"/>
<path fill-rule="evenodd" clip-rule="evenodd" d="M4 0.833252C4.27614 0.833252 4.5 1.05711 4.5 1.33325V2.66659C4.5 2.94273 4.27614 3.16659 4 3.16659C3.72386 3.16659 3.5 2.94273 3.5 2.66659V1.33325C3.5 1.05711 3.72386 0.833252 4 0.833252ZM12 0.833252C12.2761 0.833252 12.5 1.05711 12.5 1.33325V2.66659C12.5 2.94273 12.2761 3.16659 12 3.16659C11.7239 3.16659 11.5 2.94273 11.5 2.66659V1.33325C11.5 1.05711 11.7239 0.833252 12 0.833252Z" fill="#365327"/>
<path fill-rule="evenodd" clip-rule="evenodd" d="M7.32744 1.5H8.67517C9.9843 1.49999 11.0218 1.49998 11.8338 1.618C12.6728 1.73995 13.3432 1.99671 13.867 2.56291C14.3856 3.12356 14.6161 3.83195 14.7265 4.71967C14.8346 5.58954 14.8346 6.70433 14.8346 8.12673V8.53993C14.8346 9.96233 14.8346 11.0771 14.7265 11.947C14.6161 12.8347 14.3856 13.5431 13.867 14.1037C13.3432 14.6699 12.6728 14.9267 11.8338 15.0487C11.0218 15.1667 9.9843 15.1667 8.67517 15.1667H7.32744C6.01834 15.1667 4.98085 15.1667 4.16883 15.0487C3.32981 14.9267 2.6594 14.6699 2.13566 14.1037C1.61706 13.5431 1.38654 12.8347 1.27614 11.947C1.16796 11.0771 1.16796 9.96233 1.16797 8.54V8.12667C1.16796 6.70433 1.16796 5.58953 1.27614 4.71967C1.38654 3.83195 1.61706 3.12356 2.13566 2.56291C2.6594 1.99671 3.32981 1.73995 4.16883 1.618C4.98085 1.49998 6.01834 1.49999 7.32744 1.5ZM4.31266 2.60761C3.59949 2.71126 3.18078 2.90572 2.86976 3.24195C2.55363 3.58372 2.36678 4.05277 2.26849 4.84309C2.16888 5.64405 2.16797 6.6966 2.16797 8.16213V8.50453C2.16797 9.97007 2.16888 11.0226 2.26849 11.8236C2.36678 12.6139 2.55363 13.0829 2.86976 13.4247C3.18078 13.7609 3.59949 13.9554 4.31266 14.0591C5.04448 14.1654 6.00922 14.1667 7.36797 14.1667H8.63464C9.99337 14.1667 10.9581 14.1654 11.69 14.0591C12.4031 13.9554 12.8218 13.7609 13.1328 13.4247C13.449 13.0829 13.6358 12.6139 13.7341 11.8236C13.8337 11.0226 13.8346 9.97007 13.8346 8.50453V8.16213C13.8346 6.6966 13.8337 5.64405 13.7341 4.84309C13.6358 4.05277 13.449 3.58372 13.1328 3.24195C12.8218 2.90572 12.4031 2.71126 11.69 2.60761C10.9581 2.50124 9.99337 2.5 8.63464 2.5H7.36797C6.00922 2.5 5.04448 2.50124 4.31266 2.60761Z" fill="#365327"/>
<path fill-rule="evenodd" clip-rule="evenodd" d="M1.5 5.33325C1.5 5.05711 1.72386 4.83325 2 4.83325H14C14.2761 4.83325 14.5 5.05711 14.5 5.33325C14.5 5.60939 14.2761 5.83325 14 5.83325H2C1.72386 5.83325 1.5 5.60939 1.5 5.33325Z" fill="#365327"/>
</svg>
