<svg width="16" height="16" viewBox="0 0 16 16" fill="none" xmlns="http://www.w3.org/2000/svg">
<path fill-rule="evenodd" clip-rule="evenodd" d="M4.24419 8.56918C3.40375 6.51817 4.82954 4.17725 7.03994 4.17725H8.31751C10.5279 4.17725 11.9537 6.51817 11.1133 8.56918C10.9424 8.98621 10.5416 9.27261 10.0812 9.27261H9.75207L9.19834 11.5892C9.02913 12.2971 8.41223 12.8172 7.67873 12.8172C6.94522 12.8172 6.32832 12.2971 6.15911 11.5892L5.6054 9.27261H5.27625C4.8158 9.27261 4.41507 8.98621 4.24419 8.56918ZM7.03994 5.13725C5.57683 5.13725 4.52588 6.72477 5.13251 8.20515C5.16321 8.28009 5.22496 8.31261 5.27625 8.31261H5.72615C6.11338 8.31261 6.42842 8.58633 6.51361 8.94288L7.09281 11.366C7.16513 11.6686 7.41639 11.8572 7.67873 11.8572C7.94106 11.8572 8.19233 11.6686 8.26465 11.366L8.84385 8.94288C8.92903 8.58633 9.2441 8.31261 9.6313 8.31261H10.0812C10.1325 8.31261 10.1942 8.28009 10.225 8.20515C10.8316 6.72477 9.78062 5.13725 8.31751 5.13725H7.03994Z" fill="#907D78"/>
<path fill-rule="evenodd" clip-rule="evenodd" d="M7.67766 1.9373C7.0591 1.9373 6.55766 2.43874 6.55766 3.0573C6.55766 3.67586 7.0591 4.1773 7.67766 4.1773C8.29622 4.1773 8.79766 3.67586 8.79766 3.0573C8.79766 2.43874 8.29622 1.9373 7.67766 1.9373ZM5.59766 3.0573C5.59766 1.90854 6.52892 0.977295 7.67766 0.977295C8.82639 0.977295 9.75766 1.90854 9.75766 3.0573C9.75766 4.20605 8.82639 5.13729 7.67766 5.13729C6.52892 5.13729 5.59766 4.20605 5.59766 3.0573Z" fill="#907D78"/>
<path fill-rule="evenodd" clip-rule="evenodd" d="M3.19875 11.8572C3.46384 11.8572 3.67875 12.0721 3.67875 12.3372C3.67875 12.44 3.72532 12.578 3.89245 12.7474C4.06162 12.9187 4.33021 13.0951 4.69999 13.2537C5.43786 13.5699 6.49065 13.7772 7.67875 13.7772C8.86685 13.7772 9.91965 13.5699 10.6575 13.2537C11.0273 13.0951 11.2959 12.9187 11.4651 12.7474C11.6322 12.578 11.6788 12.44 11.6788 12.3372C11.6788 12.0721 11.8937 11.8572 12.1587 11.8572C12.4238 11.8572 12.6388 12.0721 12.6388 12.3372C12.6388 12.7646 12.4346 13.1316 12.1483 13.4217C11.8641 13.7097 11.4766 13.947 11.0357 14.136C10.1521 14.5147 8.96489 14.7372 7.67875 14.7372C6.39259 14.7372 5.2054 14.5147 4.32183 14.136C3.8809 13.947 3.49341 13.7097 3.20917 13.4217C2.9229 13.1316 2.71875 12.7646 2.71875 12.3372C2.71875 12.0721 2.93366 11.8572 3.19875 11.8572Z" fill="#907D78"/>
</svg>
