<svg width="41" height="41" viewBox="0 0 41 41" fill="none" xmlns="http://www.w3.org/2000/svg">
<path d="M14.8296 38.825L18.6109 20.746L21.9216 19.7555L35.0106 32.7874" stroke="#474747" stroke-miterlimit="10" stroke-linecap="round" stroke-linejoin="round"/>
<path d="M22.564 36.5107L20.4933 22.4155L21.2665 22.1842L27.2769 35.1007" stroke="#474747" stroke-miterlimit="10" stroke-linecap="round" stroke-linejoin="round"/>
<path d="M13.4025 38.5186L11.7246 39.0206C11.3883 39.1212 11.0246 38.9798 10.8351 38.6747L7.36013 33.0797C7.06838 32.61 7.02258 32.0262 7.23784 31.522L8.60403 28.3215C8.74132 27.9999 9.17844 27.9737 9.35989 28.2761L12.066 32.7872C12.2532 33.0992 12.6214 33.2457 12.962 33.1438L14.6854 32.6283" stroke="#474747" stroke-miterlimit="10" stroke-linecap="round" stroke-linejoin="round"/>
<path d="M14.9872 28.7842L13.509 29.2265C13.1682 29.3284 12.7998 29.1817 12.6128 28.8694L10.4987 25.3405C10.2186 24.8731 10.1789 24.2985 10.3921 23.8023L11.4385 21.3673C11.5813 21.0349 12.0393 21.0229 12.2074 21.3471L13.6037 24.0409C13.78 24.381 14.166 24.549 14.5245 24.4418L16.0143 23.9961" stroke="#474747" stroke-miterlimit="10" stroke-linecap="round" stroke-linejoin="round"/>
<path d="M10.2422 37.7178L13.6913 36.6859" stroke="#474747" stroke-miterlimit="10" stroke-linecap="round" stroke-linejoin="round"/>
<path d="M11.4922 31.7158L14.9413 30.6839" stroke="#474747" stroke-miterlimit="10" stroke-linecap="round" stroke-linejoin="round"/>
<path d="M12.207 28.1152L15.4369 27.1489" stroke="#474747" stroke-miterlimit="10" stroke-linecap="round" stroke-linejoin="round"/>
<path d="M13.2695 23.0859L16.4994 22.1196" stroke="#474747" stroke-miterlimit="10" stroke-linecap="round" stroke-linejoin="round"/>
<path d="M36.0918 31.7303L37.7697 31.2283C38.1059 31.1277 38.3323 30.8097 38.3231 30.4508L38.1544 23.8666C38.1402 23.3139 37.8579 22.8008 37.4011 22.4976L34.5017 20.5733C34.2104 20.38 33.8306 20.5981 33.8451 20.9505L34.061 26.2066C34.076 26.5701 33.8487 26.8948 33.5081 26.9967L31.7848 27.5122" stroke="#474747" stroke-miterlimit="10" stroke-linecap="round" stroke-linejoin="round"/>
<path d="M29.4225 24.4651L30.9008 24.0229C31.2416 23.9209 31.4688 23.596 31.4537 23.2323L31.2824 19.1221C31.2597 18.5778 30.9774 18.0758 30.5267 17.7782L28.3149 16.3179C28.0129 16.1186 27.6236 16.36 27.6612 16.7233L27.9737 19.7413C28.0131 20.1224 27.7829 20.4748 27.4244 20.5821L25.9346 21.0278" stroke="#474747" stroke-miterlimit="10" stroke-linecap="round" stroke-linejoin="round"/>
<path d="M38.2929 29.3255L34.8438 30.3574" stroke="#474747" stroke-miterlimit="10" stroke-linecap="round" stroke-linejoin="round"/>
<path d="M33.953 24.9945L30.5039 26.0264" stroke="#474747" stroke-miterlimit="10" stroke-linecap="round" stroke-linejoin="round"/>
<path d="M31.3784 22.3784L28.1484 23.3447" stroke="#474747" stroke-miterlimit="10" stroke-linecap="round" stroke-linejoin="round"/>
<path d="M27.7299 18.7603L24.5 19.7266" stroke="#474747" stroke-miterlimit="10" stroke-linecap="round" stroke-linejoin="round"/>
<path d="M19.8172 10.0064L15.0722 11.426C14.4907 11.6 13.8783 11.2696 13.7044 10.6881C13.352 9.51037 14.0211 8.27004 15.1988 7.91771L17.7848 7.14404C18.9625 6.79171 20.2028 7.4608 20.5552 8.63848C20.7291 9.22002 20.3987 9.83244 19.8172 10.0064Z" stroke="#474747" stroke-miterlimit="10" stroke-linecap="round" stroke-linejoin="round"/>
<path d="M16.5196 7.5226L15.8047 5.13281" stroke="#474747" stroke-miterlimit="10" stroke-linecap="round" stroke-linejoin="round"/>
<path d="M18.0781 13.0615L18.6501 14.9734" stroke="#474747" stroke-miterlimit="10" stroke-linecap="round" stroke-linejoin="round"/>
<path d="M14.5797 13.2631L13.2929 15.3407" stroke="#474747" stroke-miterlimit="10" stroke-linecap="round" stroke-linejoin="round"/>
<path d="M21.2422 11.2695L23.4585 12.2991" stroke="#474747" stroke-miterlimit="10" stroke-linecap="round" stroke-linejoin="round"/>
</svg>
