<svg width="44" height="46" viewBox="0 0 44 46" fill="none" xmlns="http://www.w3.org/2000/svg">
<path d="M43.1654 33.6464L43.1746 33.6413H43.1565L32.5303 27.8833L21.8863 22.1152L11.242 27.8833L0.615739 33.6413H0.597656L0.606908 33.6464L0.597656 33.6515H0.615739L11.242 39.4094L21.8863 45.1775L32.5303 39.4094L43.1565 33.6515H43.1746L43.1654 33.6464Z" fill="#EDFFB3"/>
<path d="M43.1654 11.5312L43.1746 11.5265H43.1565L32.5303 5.76811L21.8863 0L11.242 5.76811L0.615739 11.5265H0.597656L0.606908 11.5312L0.597656 11.5362H0.615739L11.242 17.2946L21.8863 23.0627L32.5303 17.2946L43.1565 11.5362H43.1746L43.1654 11.5312Z" fill="#365327"/>
<path d="M0.617188 11.0625V34.1151L21.8878 22.589L0.617188 11.0625Z" fill="#B7EB9C"/>
<path d="M43.1569 11.0625V34.1151L21.8867 22.589L43.1569 11.0625Z" fill="#B7EB9C"/>
</svg>
