<svg width="34" height="41" viewBox="0 0 34 41" fill="none" xmlns="http://www.w3.org/2000/svg">
<path d="M28.0847 22.1688C28.039 17.0912 32.2434 14.6209 32.4356 14.5059C30.0545 11.0352 26.3639 10.561 25.067 10.5232C21.9673 10.1971 18.9605 12.3775 17.3815 12.3775C15.771 12.3775 13.3395 10.5547 10.7188 10.6083C7.34653 10.6603 4.19167 12.6122 2.46139 15.6434C-1.10949 21.8238 1.5537 30.9062 4.97487 35.9019C6.68625 38.3501 8.686 41.0803 11.3035 40.9842C13.8642 40.8802 14.8208 39.3537 17.911 39.3537C20.9729 39.3537 21.8711 40.9842 24.5406 40.9228C27.2889 40.8802 29.0192 38.4651 30.6707 35.9964C32.6484 33.1937 33.4426 30.4304 33.4741 30.2886C33.4111 30.2666 28.1383 28.2532 28.0847 22.1688ZM23.042 7.23687C24.4193 5.51492 25.3616 3.17225 25.1001 0.794922C23.1066 0.883146 20.6136 2.17343 19.178 3.85756C17.9079 5.34162 16.7733 7.77409 17.0664 10.0616C19.3057 10.2286 21.6048 8.93203 23.042 7.23687Z" fill="white"/>
</svg>
